#!OML:ASF H:\MichaelJackson\Top Level 1\Subject 1\Session 1\male.ASF
:FULLY-SPECIFIED
:DEGREES
22
root 6.05226 16.8213 -14.7568 8.03806 3.39618 -0.221554
lowerback -4.87329 -0.346862 -1.49385
upperback 0.29281 -0.397609 0.733561
thorax 3.04988 -0.227723 1.56425
lowerneck -8.08883 -1.79872 -2.44269
upperneck -1.17746 -2.22926 3.72445
head 1.07866 -1.042 1.50964
rclavicle 1.86361e-016 1.31198e-014
rhumerus -41.5747 3.65685 -95.1692
rradius 38.9527
rwrist 4.83558
rhand -30.5327 -21.3519
rfingers 7.12502
rthumb -3.83192 -51.2972
lclavicle 1.86361e-016 1.31198e-014
lhumerus -41.7552 -6.55023 98.5687
lradius 41.518
lwrist 14.6007
lhand -10.0771 5.83101
lfingers 7.12502
lthumb 15.9094 35.1975
rfemur -22.3316 1.03043 21.6382
rtibia 37.536
rfoot -22.177 -9.99606
rtoes 18.7345
lfemur -22.8336 1.0768 -22.3594
ltibia 37.4686
lfoot -23.2359 1.69432
ltoes 16.1118
23
root 6.05183 16.8207 -14.7515 8.10058 3.39762 -0.232514
lowerback -4.85662 -0.315307 -1.46829
upperback 0.28604 -0.356432 0.706792
thorax 3.03157 -0.206386 1.52543
lowerneck -8.03052 -1.8251 -2.37307
upperneck -1.27695 -2.26938 3.74314
head 1.03723 -1.0629 1.50205
rclavicle 7.24322e-015 1.88845e-014
rhumerus -41.5559 3.53032 -95.1596
rradius 38.9129
rwrist 4.96236
rhand -30.5879 -21.331
rfingers 7.12502
rthumb -3.88522 -51.2754
lclavicle 7.24322e-015 1.88845e-014
lhumerus -41.7106 -6.55807 98.4964
lradius 41.3981
lwrist 14.4892
lhand -10.226 5.73237
lfingers 7.12502
lthumb 15.766 35.1103
rfemur -22.3802 1.11038 21.6538
rtibia 37.5483
rfoot -22.2357 -10.0836
rtoes 18.7518
lfemur -22.8721 1.08694 -22.3382
ltibia 37.4661
lfoot -23.3171 1.65613
ltoes 16.1353
24
root 6.05131 16.8198 -14.7464 8.16758 3.40394 -0.240439
lowerback -4.84296 -0.284416 -1.45166
upperback 0.281581 -0.315611 0.681128
thorax 3.0175 -0.185437 1.49272
lowerneck -7.96514 -1.85458 -2.3019
upperneck -1.39021 -2.31333 3.76207
head 0.99033 -1.08594 1.49423
rclavicle -5.00689e-015 -8.10048e-015
rhumerus -41.5316 3.40957 -95.1499
rradius 38.8738
rwrist 5.09644
rhand -30.648 -21.321
rfingers 7.12502
rthumb -3.94326 -51.2643
lclavicle -5.00689e-015 -8.10048e-015
lhumerus -41.6594 -6.57887 98.429
lradius 41.2787
lwrist 14.3727
lhand -10.3893 5.66135
lfingers 7.12502
lthumb 15.6087 35.0516
rfemur -22.4355 1.18262 21.6685
rtibia 37.567
rfoot -22.3129 -10.1768
rtoes 18.7447
lfemur -22.9161 1.09585 -22.3191
ltibia 37.4638
lfoot -23.4112 1.61183
ltoes 16.1355
25
root 6.05077 16.8188 -14.7415 8.23984 3.41668 -0.246135
lowerback -4.82475 -0.255825 -1.43864
upperback 0.27545 -0.2777 0.65508
thorax 2.99932 -0.165949 1.4614
lowerneck -7.89646 -1.88545 -2.23041
upperneck -1.51075 -2.35886 3.78374
head 0.940709 -1.10988 1.48727
rclavicle -5.44173e-015 6.16232e-015
rhumerus -41.5073 3.29567 -95.1439
rradius 38.8354
rwrist 5.24169
rhand -30.7153 -21.3116
rfingers 7.12502
rthumb -4.00817 -51.2536
lclavicle -5.44173e-015 6.16232e-015
lhumerus -41.6037 -6.61315 98.365
lradius 41.1572
lwrist 14.2549
lhand -10.555 5.60295
lfingers 7.12502
lthumb 15.4491 35.0056
rfemur -22.4976 1.24169 21.6831
rtibia 37.5913
rfoot -22.4108 -10.2676
rtoes 18.7137
lfemur -22.968 1.09998 -22.3014
ltibia 37.4628
lfoot -23.514 1.56479
ltoes 16.1067
26
root 6.05029 16.8175 -14.7367 8.30711 3.42409 -0.252938
lowerback -4.80099 -0.223437 -1.42752
upperback 0.273254 -0.234695 0.629467
thorax 2.98197 -0.143997 1.43197
lowerneck -7.81768 -1.91935 -2.15351
upperneck -1.64675 -2.40836 3.80133
head 0.884465 -1.13617 1.47807
rclavicle 5.5287e-015 5.96354e-015
rhumerus -41.4805 3.18411 -95.1373
rradius 38.798
rwrist 5.39207
rhand -30.7801 -21.303
rfingers 7.12502
rthumb -4.07075 -51.2438
lclavicle 5.5287e-015 5.96354e-015
lhumerus -41.5436 -6.67 98.3092
lradius 41.0364
lwrist 14.1393
lhand -10.7172 5.55148
lfingers 7.12502
lthumb 15.2929 34.9661
rfemur -22.5552 1.29041 21.7005
rtibia 37.6205
rfoot -22.5274 -10.349
rtoes 18.6421
lfemur -23.016 1.10784 -22.2826
ltibia 37.4644
lfoot -23.6238 1.51824
ltoes 16.0673
27
root 6.04997 16.816 -14.7317 8.37312 3.42677 -0.259594
lowerback -4.76951 -0.188266 -1.41651
upperback 0.271554 -0.188057 0.603221
thorax 2.96071 -0.120206 1.40219
lowerneck -7.73486 -1.95482 -2.07388
upperneck -1.79001 -2.45977 3.81728
head 0.825302 -1.16364 1.46796
rclavicle -2.41648e-015 -4.96962e-016
rhumerus -41.4552 3.07952 -95.1336
rradius 38.7621
rwrist 5.5475
rhand -30.8444 -21.286
rfingers 7.12502
rthumb -4.13284 -51.2257
lclavicle -2.41648e-015 -4.96962e-016
lhumerus -41.4845 -6.74766 98.2608
lradius 40.9202
lwrist 14.0253
lhand -10.877 5.47415
lfingers 7.12502
lthumb 15.139 34.9004
rfemur -22.6128 1.32741 21.7181
rtibia 37.6531
rfoot -22.6568 -10.4145
rtoes 18.5549
lfemur -23.0647 1.114 -22.2645
ltibia 37.4698
lfoot -23.7362 1.47452
ltoes 16.0361
28
root 6.04989 16.8144 -14.7266 8.43638 3.42109 -0.269298
lowerback -4.72752 -0.149958 -1.39935
upperback 0.269944 -0.137702 0.576277
thorax 2.93356 -0.0944208 1.36847
lowerneck -7.64637 -1.99022 -1.99075
upperneck -1.94332 -2.51088 3.8293
head 0.761946 -1.19127 1.45616
rclavicle 1.03741e-014 1.2424e-014
rhumerus -41.4304 2.98321 -95.1347
rradius 38.725
rwrist 5.70566
rhand -30.9058 -21.2581
rfingers 7.12502
rthumb -4.19221 -51.1966
lclavicle 1.03741e-014 1.2424e-014
lhumerus -41.4263 -6.84628 98.2188
lradius 40.8074
lwrist 13.9131
lhand -11.0255 5.38091
lfingers 7.12502
lthumb 14.9959 34.8179
rfemur -22.6697 1.3536 21.7387
rtibia 37.6886
rfoot -22.7887 -10.4623
rtoes 18.4466
lfemur -23.1122 1.12241 -22.2447
ltibia 37.4796
lfoot -23.8472 1.43688
ltoes 16.0069
29
root 6.05011 16.8128 -14.7213 8.49753 3.40455 -0.283394
lowerback -4.67786 -0.107516 -1.37277
upperback 0.270191 -0.0824243 0.548267
thorax 2.9039 -0.0660285 1.32865
lowerneck -7.55465 -2.02487 -1.90613
upperneck -2.1066 -2.56057 3.83896
head 0.694898 -1.21845 1.44359
rclavicle 1.31664e-014 1.41386e-014
rhumerus -41.4034 2.89412 -95.1413
rradius 38.6855
rwrist 5.86945
rhand -30.9633 -21.2153
rfingers 7.12502
rthumb -4.24774 -51.1527
lclavicle 1.31664e-014 1.41386e-014
lhumerus -41.3711 -6.96397 98.1811
lradius 40.7051
lwrist 13.799
lhand -11.1579 5.27401
lfingers 7.12502
lthumb 14.8683 34.7205
rfemur -22.7281 1.37356 21.7625
rtibia 37.7268
rfoot -22.9127 -10.4925
rtoes 18.3379
lfemur -23.1594 1.12955 -22.2221
ltibia 37.4947
lfoot -23.9537 1.41123
ltoes 15.9903
30
root 6.05057 16.8111 -14.7159 8.5602 3.37804 -0.298484
lowerback -4.62411 -0.0615053 -1.34063
upperback 0.271577 -0.0226828 0.518648
thorax 2.87308 -0.0353231 1.28429
lowerneck -7.45966 -2.05871 -1.82137
upperneck -2.27928 -2.60868 3.84734
head 0.6244 -1.24508 1.43085
rclavicle 4.20554e-015 -1.11568e-014
rhumerus -41.3744 2.81296 -95.1519
rradius 38.6493
rwrist 6.01504
rhand -30.9768 -21.1878
rfingers 7.12502
rthumb -4.26078 -51.1249
lclavicle 4.20554e-015 -1.11568e-014
lhumerus -41.3148 -7.09912 98.1472
lradius 40.6051
lwrist 13.6797
lhand -11.28 5.13537
lfingers 7.12502
lthumb 14.7508 34.5905
rfemur -22.7926 1.39303 21.7853
rtibia 37.768
rfoot -23.0265 -10.5092
rtoes 18.2429
lfemur -23.2114 1.13331 -22.2001
ltibia 37.5149
lfoot -24.0481 1.39438
ltoes 16.0069
31
root 6.05121 16.8095 -14.7105 8.63087 3.34637 -0.314256
lowerback -4.5678 -0.0147048 -1.30229
upperback 0.270446 0.037798 0.487496
thorax 2.83833 -0.00410972 1.23482
lowerneck -7.35921 -2.08975 -1.73969
upperneck -2.4605 -2.65233 3.85707
head 0.550406 -1.26969 1.41944
rclavicle -4.09993e-016 -4.47266e-016
rhumerus -41.3402 2.7382 -95.1684
rradius 38.608
rwrist 6.15302
rhand -30.9919 -21.14
rfingers 7.12502
rthumb -4.27535 -51.0769
lclavicle -4.09993e-016 -4.47266e-016
lhumerus -41.2608 -7.24452 98.1145
lradius 40.5111
lwrist 13.5519
lhand -11.3901 5.01077
lfingers 7.12502
lthumb 14.6446 34.4736
rfemur -22.8709 1.41423 21.8069
rtibia 37.8122
rfoot -23.1238 -10.5231
rtoes 18.1599
lfemur -23.273 1.13312 -22.1803
ltibia 37.5404
lfoot -24.1335 1.39568
ltoes 16.0111
32
root 6.05193 16.8078 -14.7053 8.71037 3.31306 -0.330028
lowerback -4.50878 0.0321143 -1.26013
upperback 0.267451 0.0981233 0.455089
thorax 2.80029 0.0271123 1.1818
lowerneck -7.25608 -2.11789 -1.66248
upperneck -2.64844 -2.69133 3.87128
head 0.474063 -1.2921 1.4106
rclavicle 2.41026e-015 -1.09083e-014
rhumerus -41.3039 2.67057 -95.1896
rradius 38.5707
rwrist 6.26611
rhand -30.9794 -21.1056
rfingers 7.12502
rthumb -4.26322 -51.0427
lclavicle 2.41026e-015 -1.09083e-014
lhumerus -41.2089 -7.39693 98.0808
lradius 40.4262
lwrist 13.4155
lhand -11.4809 4.90725
lfingers 7.12502
lthumb 14.5572 34.3765
rfemur -22.9642 1.44292 21.8267
rtibia 37.8606
rfoot -23.2099 -10.5335
rtoes 18.1276
lfemur -23.3479 1.12334 -22.1618
ltibia 37.5705
lfoot -24.2053 1.41045
ltoes 16.0274
33
root 6.05266 16.8062 -14.7003 8.80287 3.28051 -0.344607
lowerback -4.45242 0.0783722 -1.21692
upperback 0.262539 0.157726 0.421941
thorax 2.76197 0.0579892 1.1273
lowerneck -7.14752 -2.14517 -1.591
upperneck -2.84447 -2.72825 3.89072
head 0.394606 -1.31363 1.40473
rclavicle 8.09193e-015 -5.68089e-015
rhumerus -41.2665 2.60804 -95.2132
rradius 38.5395
rwrist 6.36048
rhand -30.9407 -21.0895
rfingers 7.12502
rthumb -4.2259 -51.0273
lclavicle 8.09193e-015 -5.68089e-015
lhumerus -41.1505 -7.55719 98.0485
lradius 40.3374
lwrist 13.2685
lhand -11.5676 4.82599
lfingers 7.12502
lthumb 14.4736 34.3012
rfemur -23.0769 1.48294 21.844
rtibia 37.9142
rfoot -23.2712 -10.5667
rtoes 18.0137
lfemur -23.4419 1.10295 -22.1454
ltibia 37.6047
lfoot -24.2627 1.43304
ltoes 16.064
